<svg xmlns="http://www.w3.org/2000/svg" viewBox="0 0 1401 999" width="1401" height="999">
	<defs>
		<linearGradient id="grd1" gradientUnits="userSpaceOnUse"  x1="1077.102" y1="640.786" x2="774.478" y2="815.517">
			<stop offset="0.197" stop-color="#d0dcf1"  />
			<stop offset="0.416" stop-color="#d6e1f3"  />
			<stop offset="0.716" stop-color="#e8eef8"  />
			<stop offset="1" stop-color="#ffffff"  />
		</linearGradient>
		<linearGradient id="grd2" gradientUnits="userSpaceOnUse"  x1="1213.805" y1="439.988" x2="1363.516" y2="421.462">
			<stop offset="0" stop-color="#fdae6b"  />
			<stop offset="1" stop-color="#fae539"  />
		</linearGradient>
		<radialGradient id="grd3" gradientUnits="userSpaceOnUse"  cx="603.184" cy="524.606" r="113.157">
			<stop offset="0" stop-color="#e36359" stop-opacity="0.36" />
			<stop offset="1" stop-color="#704840" stop-opacity="0" />
		</radialGradient>
		<linearGradient id="grd4" gradientUnits="userSpaceOnUse"  x1="580.036" y1="652.409" x2="477.24" y2="673.414">
			<stop offset="0" stop-color="#2d4063" stop-opacity="0" />
			<stop offset="1" stop-color="#120f3b"  />
		</linearGradient>
		<linearGradient id="grd5" gradientUnits="userSpaceOnUse"  x1="548.399" y1="700.099" x2="548.399" y2="654.221">
			<stop offset="0" stop-color="#8dc6d5" stop-opacity="0" />
			<stop offset="1" stop-color="#377dff" stop-opacity="0.3" />
		</linearGradient>
		<linearGradient id="grd6" gradientUnits="userSpaceOnUse"  x1="307.052" y1="797.124" x2="291.089" y2="729.15">
			<stop offset="0" stop-color="#221616"  />
			<stop offset="1" stop-color="#503889"  />
		</linearGradient>
		<linearGradient id="grd7" gradientUnits="userSpaceOnUse"  x1="300.645" y1="771.793" x2="297.342" y2="819.572">
			<stop offset="0" stop-color="#70b8f9" stop-opacity="0" />
			<stop offset="1" stop-color="#000000"  />
		</linearGradient>
		<linearGradient id="grd8" gradientUnits="userSpaceOnUse"  x1="345.358" y1="637.127" x2="427.383" y2="756.333">
			<stop offset="0" stop-color="#000000" stop-opacity="0.64" />
			<stop offset="1" stop-color="#000000" stop-opacity="0" />
		</linearGradient>
		<linearGradient id="grd9" gradientUnits="userSpaceOnUse"  x1="543.454" y1="642.483" x2="454.113" y2="714.827">
			<stop offset="0" stop-color="#377dff" stop-opacity="0.5" />
			<stop offset="1" stop-color="#282828" stop-opacity="0" />
		</linearGradient>
		<linearGradient id="grd10" gradientUnits="userSpaceOnUse"  x1="448.951" y1="778.274" x2="448.951" y2="819.543">
			<stop offset="0" stop-color="#3d3068" stop-opacity="0" />
			<stop offset="1" stop-color="#000000" stop-opacity="0.59" />
		</linearGradient>
		<linearGradient id="grd11" gradientUnits="userSpaceOnUse"  x1="350.113" y1="741.926" x2="407.203" y2="726.33">
			<stop offset="0" stop-color="#8dc6d5" stop-opacity="0" />
			<stop offset="1" stop-color="#377dff" stop-opacity="0.3" />
		</linearGradient>
		<linearGradient id="grd12" gradientUnits="userSpaceOnUse"  x1="389.978" y1="315.665" x2="447.674" y2="315.665">
			<stop offset="0" stop-color="#ffccb5"  />
			<stop offset="1" stop-color="#d25e13"  />
		</linearGradient>
		<linearGradient id="grd13" gradientUnits="userSpaceOnUse"  x1="592.6" y1="318.498" x2="661.07" y2="318.498">
			<stop offset="0" stop-color="#ffccb5"  />
			<stop offset="1" stop-color="#edaf85"  />
		</linearGradient>
		<linearGradient id="grd14" gradientUnits="userSpaceOnUse"  x1="298.322" y1="632.863" x2="468.4" y2="632.863">
			<stop offset="0" stop-color="#377dff" stop-opacity="0.6" />
			<stop offset="0.208" stop-color="#377dff" stop-opacity="0.3" />
			<stop offset="0.495" stop-color="#377dff" stop-opacity="0.1" />
			<stop offset="0.826" stop-color="#377dff" stop-opacity="0.1" />
			<stop offset="1" stop-color="#377dff" stop-opacity="0" />
		</linearGradient>
		<linearGradient id="grd15" gradientUnits="userSpaceOnUse"  x1="385.199" y1="349.941" x2="439.844" y2="349.941">
			<stop offset="0" stop-color="#377dff" stop-opacity="0.6" />
			<stop offset="0.208" stop-color="#377dff" stop-opacity="0.3" />
			<stop offset="0.495" stop-color="#377dff" stop-opacity="0.1" />
			<stop offset="0.826" stop-color="#377dff" stop-opacity="0.1" />
			<stop offset="1" stop-color="#377dff" stop-opacity="0" />
		</linearGradient>
		<linearGradient id="grd16" gradientUnits="userSpaceOnUse"  x1="573.594" y1="371.128" x2="629.998" y2="371.128">
			<stop offset="0" stop-color="#377dff" stop-opacity="0.6" />
			<stop offset="0.208" stop-color="#377dff" stop-opacity="0.3" />
			<stop offset="0.495" stop-color="#377dff" stop-opacity="0.1" />
			<stop offset="0.826" stop-color="#377dff" stop-opacity="0.1" />
			<stop offset="1" stop-color="#377dff" stop-opacity="0" />
		</linearGradient>
		<linearGradient id="grd17" gradientUnits="userSpaceOnUse"  x1="355.622" y1="350.511" x2="393.875" y2="419.171">
			<stop offset="0" stop-color="#001630" stop-opacity="0.06" />
			<stop offset="1" stop-color="#081e41"  />
		</linearGradient>
		<linearGradient id="grd18" gradientUnits="userSpaceOnUse"  x1="1150.809" y1="845.588" x2="1252.785" y2="889.502">
			<stop offset="0" stop-color="#47689b"  />
			<stop offset="1" stop-color="#223762"  />
		</linearGradient>
		<linearGradient id="grd19" gradientUnits="userSpaceOnUse"  x1="1389.294" y1="708.782" x2="1178.133" y2="913.158">
			<stop offset="0" stop-color="#cfddf3"  />
			<stop offset="0.474" stop-color="#b3c7e9"  />
			<stop offset="1" stop-color="#728fc5"  />
		</linearGradient>
		<linearGradient id="grd20" gradientUnits="userSpaceOnUse"  x1="206.734" y1="735.313" x2="102.91" y2="691.313">
			<stop offset="0" stop-color="#cee0fb"  />
			<stop offset="1" stop-color="#e4edfb"  />
		</linearGradient>
		<linearGradient id="grd21" gradientUnits="userSpaceOnUse"  x1="117.602" y1="650.821" x2="117.602" y2="681.821">
			<stop offset="0" stop-color="#99bae9"  />
			<stop offset="1" stop-color="#bcd0f2"  />
		</linearGradient>
		<linearGradient id="grd22" gradientUnits="userSpaceOnUse"  x1="78.281" y1="475.804" x2="112.446" y2="649.654">
			<stop offset="0" stop-color="#b1ffbe"  />
			<stop offset="0.444" stop-color="#5cdb8e"  />
			<stop offset="1" stop-color="#149654"  />
		</linearGradient>
		<linearGradient id="grd23" gradientUnits="userSpaceOnUse"  x1="50.297" y1="553.654" x2="63.218" y2="670.061">
			<stop offset="0" stop-color="#b1ffbe"  />
			<stop offset="0.444" stop-color="#5cdb8e"  />
			<stop offset="1" stop-color="#149654"  />
		</linearGradient>
		<linearGradient id="grd24" gradientUnits="userSpaceOnUse"  x1="148.097" y1="557.742" x2="189.964" y2="683.155">
			<stop offset="0" stop-color="#b1ffbe"  />
			<stop offset="0.444" stop-color="#5cdb8e"  />
			<stop offset="1" stop-color="#149654"  />
		</linearGradient>
	</defs>
	<style>
		tspan { white-space:pre }
		.shp0 { opacity: 0.502;fill: url(#grd1) } 
		.shp1 { opacity: 0.659;fill: none;stroke: #bdc5d1;stroke-linecap:round;stroke-width: 5;stroke-dasharray: 5,20 } 
		.shp2 { fill: url(#grd2) } 
		.shp3 { fill: #e19046 } 
		.shp4 { fill: #e69f52 } 
		.shp5 { fill: #ffffff;stroke: #e7eaf3;stroke-width: 4 } 
		.shp6 { fill: #e7eaf3 } 
		.shp7 { fill: #ffffff } 
		.shp8 { fill: #09385b } 
		.shp9 { fill: #000000;stroke: #ffffff;stroke-width: 4 } 
		.shp10 { fill: #1e2022 } 
		.shp11 { display: none;fill: url(#grd3) } 
		.shp12 { fill: url(#grd4) } 
		.shp13 { fill: url(#grd5) } 
		.shp14 { fill: url(#grd6) } 
		.shp15 { fill: #edaf85 } 
		.shp16 { opacity: 0.6;fill: url(#grd7) } 
		.shp17 { fill: none;stroke: #ffffff;stroke-linecap:round;stroke-linejoin:round;stroke-width: 4 } 
		.shp18 { fill: url(#grd8) } 
		.shp19 { fill: url(#grd9) } 
		.shp20 { fill: url(#grd10) } 
		.shp21 { fill: url(#grd11) } 
		.shp22 { fill: url(#grd12) } 
		.shp23 { fill: none;stroke: #1e2022;stroke-width: 3 } 
		.shp24 { fill: #346cc7 } 
		.shp25 { fill: #223762 } 
		.shp26 { fill: url(#grd13) } 
		.shp27 { fill: #377dff } 
		.shp28 { fill: url(#grd14) } 
		.shp29 { fill: url(#grd15) } 
		.shp30 { fill: url(#grd16) } 
		.shp31 { fill: #236ce2 } 
		.shp32 { fill: #21325b } 
		.shp33 { fill: url(#grd17) } 
		.shp34 { opacity: 0.8;fill: #bdc5d1 } 
		.shp35 { fill: none;stroke: #ffffff;stroke-width: 6 } 
		.shp36 { fill: url(#grd18) } 
		.shp37 { fill: url(#grd19) } 
		.shp38 { fill: #d6e3fa } 
		.shp39 { opacity: 0.2;fill: #bbcff2 } 
		.shp40 { fill: url(#grd20) } 
		.shp41 { fill: url(#grd21) } 
		.shp42 { fill: url(#grd22) } 
		.shp43 { opacity: 0.502;fill: #000000;stroke: #489c71;stroke-width: 3 } 
		.shp44 { fill: url(#grd23) } 
		.shp45 { fill: url(#grd24) } 
	</style>
	<path id="phone_stack_shadow" class="shp0" d="M387.4 699.3L824.3 585.1L1375.4 808.2L962.5 998.7" />
	<g id="message">
		<path id="line" class="shp1" d="M95 128.3C-180.8 418 224.5 827.8 470.4 519.9C884.6 1.4 1237.4 391 1237.4 391" />
		<g id="rocket">
			<path id="Shape_5" class="shp2" d="M1215.9 440.6L1239.4 410L1315.5 457.7L1257.2 390.7L1285.5 364.1L1356.8 489.3L1215.9 440.6Z" />
			<path id="Shape_6" class="shp3" d="M1238.7 410.8L1256.5 408.4L1318.9 460L1238.7 410.8Z" />
			<path id="Shape_7" class="shp4" d="M1255.6 408.4L1258.1 390.6L1317.2 458.5L1255.6 408.4Z" />
		</g>
	</g>
	<g id="Layer">
		<path id="Layer" class="shp5" d="M1096 699L470 699C461.2 699 454 691.8 454 683L454 16C454 7.2 461.2 0 470 0L1096 0C1104.8 0 1112 7.2 1112 16L1112 683C1111.9 691.8 1104.8 699 1096 699Z" />
		<path id="_copy_5" class="shp6" d="M756.6 304L580.6 304C575.1 304 570.6 299.5 570.6 294L570.6 130C570.6 124.5 575.1 120 580.6 120L756.6 120C762.1 120 766.6 124.5 766.6 130L766.6 294C766.5 299.5 762.1 304 756.6 304Z" />
		<path id="Layer" class="shp7" d="M745.6 293L569.6 293C564.1 293 559.6 288.5 559.6 283L559.6 119C559.6 113.5 564.1 109 569.6 109L745.6 109C751.1 109 755.6 113.5 755.6 119L755.6 283C755.5 288.5 751.1 293 745.6 293Z" />
		<path id="_copy_6" class="shp6" d="M1005.6 304L829.6 304C824.1 304 819.6 299.5 819.6 294L819.6 130C819.6 124.5 824.1 120 829.6 120L1005.6 120C1011.1 120 1015.6 124.5 1015.6 130L1015.6 294C1015.5 299.5 1011.1 304 1005.6 304Z" />
		<path id="Layer" class="shp7" d="M994.6 293L818.6 293C813.1 293 808.6 288.5 808.6 283L808.6 119C808.6 113.5 813.1 109 818.6 109L994.6 109C1000.1 109 1004.6 113.5 1004.6 119L1004.6 283C1004.5 288.5 1000.1 293 994.6 293Z" />
		<g id="list">
			<path id="Layer" class="shp6" d="M664.6 458L569.6 458C564.1 458 559.6 453.5 559.6 448L559.6 353C559.6 347.5 564.1 343 569.6 343L664.6 343C670.1 343 674.6 347.5 674.6 353L674.6 448C674.5 453.5 670.1 458 664.6 458Z" />
			<path id="Layer" class="shp6" d="M664.6 598L569.6 598C564.1 598 559.6 593.5 559.6 588L559.6 493C559.6 487.5 564.1 483 569.6 483L664.6 483C670.1 483 674.6 487.5 674.6 493L674.6 588C674.5 593.5 670.1 598 664.6 598Z" />
			<path id="Layer" class="shp6" d="M1001.6 375L697.6 375C695.9 375 694.6 373.7 694.6 372L694.6 372L694.6 348C694.6 346.3 695.9 345 697.6 345L1001.6 345C1003.3 345 1004.6 346.3 1004.6 348L1004.6 372C1004.5 373.7 1003.2 375 1001.6 375Z" />
			<path id="Layer" class="shp6" d="M1001.6 515L697.6 515C695.9 515 694.6 513.7 694.6 512L694.6 488C694.6 486.3 695.9 485 697.6 485L1001.6 485C1003.3 485 1004.6 486.3 1004.6 488L1004.6 512C1004.5 513.7 1003.2 515 1001.6 515Z" />
			<path id="Layer" class="shp6" d="M931.6 425L697.6 425C695.9 425 694.6 423.7 694.6 422L694.6 398C694.6 396.3 695.9 395 697.6 395L931.6 395C933.3 395 934.6 396.3 934.6 398L934.6 422C934.5 423.7 933.2 425 931.6 425Z" />
			<path id="Layer" class="shp6" d="M931.6 565L697.6 565C695.9 565 694.6 563.7 694.6 562L694.6 538C694.6 536.3 695.9 535 697.6 535L931.6 535C933.3 535 934.6 536.3 934.6 538L934.6 562C934.5 563.7 933.2 565 931.6 565Z" />
		</g>
	</g>
	<g id="Layer">
		<g id="shoe">
			<path id="Layer" class="shp8" d="M593.9 808.8L564.8 808.8C560.8 800.4 558.1 793.2 556.8 787.2C554.8 778.2 551.8 771.5 554.8 759.3C557.8 747.1 592 740.2 596.3 744.1C600.6 748 599.9 750.1 617 759.2C627.3 764.7 646.5 773.5 674.4 785.7C679.8 788.1 683.4 793.5 683.4 799.4C683.4 804.8 679 809.3 673.6 809.4C643.2 809.9 624.3 810.2 616.8 810.2C608.8 807.3 601.1 803.7 593.8 799.4L593.9 808.8L593.9 808.8Z" />
			<path id="Shape_9_copy_3" class="shp9" d="M630.5 774C632.5 771.9 643 765.3 647.5 769.3" />
		</g>
		<g id="leg">
			<g id="Layer">
				<path id="Mask_Path" class="shp10" d="M422.5 599.3C422.5 599.3 511.7 549.7 534.1 540.6C556.5 531.5 592.1 521.9 596.9 525.4C601.8 528.9 631.6 554.5 641.1 593.8C650.6 633.1 657.2 747.5 668.5 756.1C655 766.8 556.2 783.3 534.1 775.8C534.1 748.9 529.9 681.5 534.1 668.5C525.8 672.5 471.3 700.2 448.8 706.1C437.8 709 414.6 681.9 410.8 655.1C406.9 627.1 422.5 599.3 422.5 599.3Z" />
				<path id="Mask_Path-2" class="shp11" d="M422.5 599.3C422.5 599.3 511.7 549.7 534.1 540.6C556.5 531.5 592.1 521.9 596.9 525.4C601.8 528.9 631.6 554.5 641.1 593.8C650.6 633.1 657.2 747.5 668.5 756.1C655 766.8 556.2 783.3 534.1 775.8C534.1 748.9 529.9 681.5 534.1 668.5C525.8 672.5 471.3 700.2 448.8 706.1C437.8 709 414.6 681.9 410.8 655.1C406.9 627.1 422.5 599.3 422.5 599.3Z" />
				<path id="Mask_Path-3" class="shp12" d="M422.5 599.3C422.5 599.3 511.7 549.7 534.1 540.6C556.5 531.5 592.1 521.9 596.9 525.4C601.8 528.9 631.6 554.5 641.1 593.8C650.6 633.1 657.2 747.5 668.5 756.1C655 766.8 556.2 783.3 534.1 775.8C534.1 748.9 529.9 681.5 534.1 668.5C525.8 672.5 471.3 700.2 448.8 706.1C437.8 709 414.6 681.9 410.8 655.1C406.9 627.1 422.5 599.3 422.5 599.3Z" />
			</g>
			<path id="Layer" class="shp13" d="M538.2 664.7C543.7 660.5 560.1 646.2 564.2 644.2C557.1 658.4 550.4 687 550.4 700.1C544.2 696.1 538.3 691.7 532.6 687C532.7 674.9 534.5 667.4 538.2 664.7Z" />
		</g>
		<path id="inside_pants" class="shp14" d="M290.9 714.3C286.1 718.1 281.4 813.8 290.9 815.8C300.4 817.8 325.4 795.7 319.1 754.9C312.8 714.1 295.8 718.9 290.9 714.3Z" />
		<g id="ankle">
			<path id="Layer" class="shp15" d="M322 772.5C311.2 778.1 296.3 775.6 277.5 764.8C272.9 775.2 269.9 782.5 268.5 786.6C262.5 804.9 264.4 814.4 274.2 815.1C287.4 816 303.3 816.5 322 816.5C332.9 781.6 332.9 766.9 322 772.5Z" />
			<g id="Layer">
				<g id="Layer">
					<g id="Layer">
						<path id="Path_4" class="shp16" d="M295.2 818C299.1 808 294.7 775 286.5 765.8C278.3 756.6 316.5 771.7 316.5 771.7C316.5 771.7 314.1 795.2 311.1 801.9C302.3 821.6 293.2 823 295.2 818Z" />
					</g>
				</g>
			</g>
		</g>
		<g id="Layer">
			<path id="Layer" class="shp8" d="M264.5 756.6C271.8 761.2 279.4 765.3 287.3 769C291.1 770.8 280.1 775.4 269.1 790.7C259.5 803.9 273 814.6 269.1 814.9C263.3 815.4 262.3 813.5 243.9 819.8C232.9 823.6 214.1 830.8 187.5 841.5L187.5 841.5C182 843.7 175.6 842.5 171.3 838.5C167.3 834.8 167.1 828.6 170.7 824.5C189.7 803.5 201.7 790.2 206.7 784.8C214.2 780.9 222.1 777.8 230.3 775.4L223.4 769L243.2 747.7C252.1 750.5 259.2 753.4 264.5 756.6Z" />
			<path id="Shape_9" class="shp9" d="M215.5 817C217.8 819 224.8 829.5 220.5 834" />
			<path id="Shape_9_copy" class="shp9" d="M225.5 812C227.8 814 234.8 824.5 230.5 829" />
			<path id="Shape_9_copy_2" class="shp17" d="M235.5 808C237.8 810 244.8 820.5 240.5 825" />
		</g>
		<path id="Mask_Path-4" class="shp10" d="M325.4 610.5C313 628.1 309.2 657.9 317.6 678.4C325 696.6 354.2 716.6 360.6 719.3C346 719.3 296.9 716.9 290.6 714.4C296.3 744.3 325.3 792.5 296.3 816.1C317.5 818.5 500.3 820.9 519.4 818.5C538.4 816.1 601.3 825.6 606.8 792.5C612.4 759.4 568.2 713.9 554.2 702.5C540.2 691.1 461.6 642 448.2 627.2C435 612.5 337.8 592.9 325.4 610.5Z" />
		<path id="Mask_Path-5" class="shp18" d="M325.4 610.5C313 628.1 309.2 657.9 317.6 678.4C325 696.6 354.2 716.6 360.6 719.3C346 719.3 296.9 716.9 290.6 714.4C296.3 744.3 325.3 792.5 296.3 816.1C317.5 818.5 500.3 820.9 519.4 818.5C538.4 816.1 601.3 825.6 606.8 792.5C612.4 759.4 568.2 713.9 554.2 702.5C540.2 691.1 461.6 642 448.2 627.2C435 612.5 337.8 592.9 325.4 610.5Z" />
		<path id="Mask_Path-6" class="shp19" d="M325.4 610.5C313 628.1 309.2 657.9 317.6 678.4C325 696.6 354.2 716.6 360.6 719.3C346 719.3 296.9 716.9 290.6 714.4C296.3 744.3 325.3 792.5 296.3 816.1C317.5 818.5 500.3 820.9 519.4 818.5C538.4 816.1 601.3 825.6 606.8 792.5C612.4 759.4 568.2 713.9 554.2 702.5C540.2 691.1 461.6 642 448.2 627.2C435 612.5 337.8 592.9 325.4 610.5Z" />
		<path id="Mask_Path-7" class="shp20" d="M325.4 610.5C313 628.1 309.2 657.9 317.6 678.4C325 696.6 354.2 716.6 360.6 719.3C346 719.3 296.9 716.9 290.6 714.4C296.3 744.3 325.3 792.5 296.3 816.1C317.5 818.5 500.3 820.9 519.4 818.5C538.4 816.1 601.3 825.6 606.8 792.5C612.4 759.4 568.2 713.9 554.2 702.5C540.2 691.1 461.6 642 448.2 627.2C435 612.5 337.8 592.9 325.4 610.5Z" />
		<path id="Layer" class="shp21" d="M290.6 714.7C294.4 732.3 312.7 746.4 345.6 757.1C394.9 773.1 443.4 752.8 453.7 757.1C437 751.7 394.6 739.5 360.3 719.5C348.4 719.5 325.1 717.9 290.6 714.7Z" />
	</g>
	<g id="Layer">
		<path id="Layer" class="shp15" d="M412.6 209.2C421.2 219.4 422.8 224 432 232.2C441.2 240.4 454 243.4 457.6 244.7C461.3 246 450.2 254.2 453.9 264.9C457.6 275.5 465.4 291.2 465.4 295.4C465.4 299.6 450.9 306.9 437.1 313.1C423.3 319.3 421.4 324.5 423 335C424.6 345.5 426.9 359.1 437.1 365C443.9 369 424.6 361.9 379 343.9C359.7 300.6 354.8 265.2 364.5 237.9C379.1 197 404 199 412.6 209.2Z" />
		<g id="Layer">
			<g id="Layer">
				<g id="Layer">
					<g id="face-2">
						<path id="Path_2" class="shp22" d="M393.4 287.8C397.4 292.6 404.1 301.7 412.6 306.9C420.6 311.7 434.7 311.9 443.3 311.9C460.9 311.9 419.7 344.5 419.7 344.5L393.4 339.2C393.4 339.2 385.7 278.5 393.4 287.8Z" />
						<path id="Layer" class="shp23" d="M413.9 236.4C413.9 232.7 418.5 226.3 422.4 226.3" />
						<path id="Layer" class="shp10" d="M428.7 245.9C430.4 245.5 430.9 243.1 429.9 240.7C428.9 238.3 426.8 236.6 425.1 237.1C423.4 237.5 422.9 239.9 423.8 242.3C424.7 244.7 427.1 246.4 428.7 245.9Z" />
						<path id="Layer" class="shp10" d="M453.3 264.8C454.2 264.1 454.1 265.4 454.7 266.6C455.3 268 455.9 269.3 456.3 270.8C452.6 273.6 445.2 272.2 440.1 270.3C439.1 269.9 438 268.6 438.6 267.7C439.2 266.8 440.3 267.1 441.4 267.2C445.2 267.7 451 266.5 453.3 264.8Z" />
					</g>
				</g>
			</g>
		</g>
		<g id="hand">
			<path id="finger" class="shp24" d="M607.5 318C606.2 315.9 604.9 286.1 608.5 282C612.1 277.9 621.2 272.8 622.5 274C623.8 275.2 627 281.6 624.5 283C622 284.4 617.1 289.3 617.5 291C617.9 292.7 618.6 297.9 620.5 300C622.4 302.1 610.6 322.9 607.5 318Z" />
			<g id="pen">
				<path id="Layer" class="shp7" d="M651.4 259C654.3 256.5 668.1 249.8 669.6 255C670.6 258.4 666 262.9 656 268.3C651 263.8 649.4 260.7 651.4 259Z" />
				<path id="Layer" class="shp25" d="M594.3 283.9L651.3 256.2C655 254.4 659.4 255.6 661.7 259C663.9 262.3 663.1 266.7 659.8 269L607.4 306.2C601.6 310.3 593.5 309 589.4 303.1L589.4 303.1C589.2 302.8 589 302.5 588.8 302.2C585.2 296 587.2 288 593.4 284.4L593.4 284.4C593.6 284.3 593.9 284.1 594.3 283.9Z" />
			</g>
			<path id="hand-2" class="shp26" d="M592.6 351.2C599.6 342.5 604 336.8 605.8 334.2C607.1 332.3 605 320.2 607.8 315.2C610.5 310.2 612.5 308.6 614.5 305.7C615.1 304.8 618.3 300 619.2 297.3C621.5 290.1 622.2 286.7 622.7 282.7C623.4 277.1 638.4 265.7 640.3 261.7C642.1 257.7 646.3 256.4 648.6 261.7C650.8 267 635.7 280.8 635.7 288.1C635.7 288.5 642.2 278.5 646.2 277.5C649.9 277.5 649.4 282.5 651 289.5C652.6 296.3 661.3 304.6 661.3 313.4C661.3 318.5 661.3 322.7 661.3 323.5C661.2 331.1 633.7 352.5 627.7 361C623.7 366.7 619.3 372.7 614.6 378.8L592.6 351.2Z" />
		</g>
		<path id="shirt_bottom" class="shp7" d="M306.3 611.8C302.5 628.1 299.9 638.2 298.4 641.9C296.2 647.5 340.8 654.4 389.4 653.9C431.4 653.5 460.3 648.7 468.4 642.9C460.6 635.9 458.6 629.8 457.6 625.4C449.9 616.4 399.4 611.8 306.3 611.8Z" />
		<path id="colar" class="shp7" d="M390.4 328.3C400.2 330.8 423.2 334.4 427.9 334.4C432.6 334.3 440.4 368.4 439.9 371.4C439.4 374.4 393.6 357.9 390.4 354C387.2 350 380.5 325.8 390.4 328.3Z" />
		<path id="Mask_Path-9" class="shp27" d="M283.2 609.7C290.1 596 337.6 468.4 338.1 439.2C338.6 410 347.3 350 372.8 350.2C398.3 350.4 451 374.5 459.7 381C468.4 387.5 476.3 415.4 476.3 430.8C476.3 438.4 476.4 484.3 476.3 531C476.2 575.9 490.8 621.5 491.6 623.3C451.3 636.7 293.9 629.9 283.2 609.7Z" />
		<path id="shirt_sleeve" class="shp7" d="M574.7 365.9C582 359.7 592.2 347.5 597.9 340.2C603.6 332.9 635.4 366.1 629.2 374.4C623 382.7 610.5 398.2 604.5 402.7C598.4 407.2 567.4 372 574.7 365.9Z" />
		<path id="shirt_bottom_1_" class="shp28" d="M306.3 611.8C302.5 628.1 299.9 638.2 298.4 641.9C296.2 647.5 340.8 654.4 389.4 653.9C431.4 653.5 460.3 648.7 468.4 642.9C460.6 635.9 458.6 629.8 457.6 625.4C449.9 616.4 399.4 611.8 306.3 611.8Z" />
		<path id="colar_1_" class="shp29" d="M390.4 328.3C400.2 330.8 423.2 334.4 427.9 334.4C432.6 334.3 440.4 368.4 439.9 371.4C439.4 374.4 393.6 357.9 390.4 354C387.2 350 380.5 325.8 390.4 328.3Z" />
		<path id="shirt_sleeve_1_" class="shp30" d="M574.7 365.9C582 359.7 592.2 347.5 597.9 340.2C603.6 332.9 635.4 366.1 629.2 374.4C623 382.7 610.5 398.2 604.5 402.7C598.4 407.2 567.4 372 574.7 365.9Z" />
		<path id="Mask_Path-10" class="shp31" d="M427.4 467.6C441.3 476.6 536.2 502.8 546.8 499C557.3 495.1 623.1 415.7 626.8 407.1C630.5 398.5 584.1 350.8 578.6 358.1C573.1 365.4 527.2 422.4 522 422.4C516.8 422.4 461.8 376.3 445.7 373.6C429.6 370.9 417.7 390.6 414.6 400.9C411.5 411.2 413.4 458.6 427.4 467.6Z" />
		<path id="Layer" class="shp32" d="M393 246.2C412.1 240 395.3 213.7 402.1 213.7C404.9 213.7 416.2 211.5 419.1 205.4C425.6 191.8 410.7 179.7 373.7 182.6C310.5 187.4 307.1 253 312.5 285.8C317.8 318.6 247.8 418.3 269.9 461C292 503.7 336.2 487.3 373.8 450.1C411.4 412.9 401.5 286.6 391.6 280.5C381.7 274.4 373.9 252.4 393 246.2Z" />
		<g id="Layer">
			<g id="Layer">
				<g id="Layer">
					<g id="hair-2">
						<path id="Path_3" class="shp33" d="M396.3 283.4C396.3 296.3 371.7 458.1 349.7 470.7C327.7 483.3 417.7 482.8 417.7 458.6C417.7 434.4 396.3 270.6 396.3 283.4Z" />
					</g>
				</g>
			</g>
		</g>
	</g>
	<g id="Layer">
		<path id="Ellipse_4-2" class="shp34" d="M168.2 0C202.4 0 230.2 27.8 230.2 62C230.2 96.2 202.4 124 168.2 124C134 124 106.2 96.2 106.2 62C106.2 27.8 134 0 168.2 0Z" />
		<path id="Shape_8" class="shp35" d="M169 19.7L169 64.3L189.4 84.7" />
	</g>
	<g id="laptop">
		<path id="Layer" class="shp36" d="M1163.1 921.2L1064.6 877.8C1062.1 876.7 1060.9 873.7 1062 871.2C1062.6 869.8 1063.8 868.8 1065.3 868.4L1253.8 819.6L1355.4 865.9L1163.1 921.2Z" />
		<path id="Layer" class="shp37" d="M1393.2 717.4L1214.6 751.8C1208.8 752.9 1204.2 757.3 1202.9 763L1164.4 921.7L1347.7 876.1C1352.1 875 1355.7 871.6 1357 867.3L1400.1 725C1401.1 721.8 1399.3 718.5 1396.1 717.5C1395.1 717.2 1394.1 717.2 1393.2 717.4L1393.2 717.4Z" />
		<path id="Layer" class="shp38" d="M1295.1 831.8C1286.6 837.4 1277 838.7 1272 831C1267 823.4 1272.9 813.3 1281.5 807.6C1290 802 1298.6 800.9 1303.7 808.5C1308.6 816.1 1303.7 826.1 1295.1 831.8Z" />
	</g>
	<g id="Plant">
		<g id="Pot">
			<path id="shadow-2" class="shp39" d="M115.1 724.9C154.9 724.9 187.1 731.8 187.1 740.4C187.1 749 154.9 755.9 115.1 755.9C75.3 755.9 43.1 749 43.1 740.4C43.1 731.8 75.4 724.9 115.1 724.9Z" />
			<g id="Ellipse_2-2">
				<path id="Ellipse_2-3" class="shp40" d="M182.1 664.2C186.7 672.1 189.1 681.2 189.1 690.3C189.1 723.7 156.9 750.8 117.1 750.8C77.3 750.8 45.1 723.7 45.1 690.3C45.1 680.6 47.8 671.1 53 662.8C84.9 667.9 148.4 667.6 182.1 664.2Z" />
			</g>
			<g id="Ellipse_1-2">
				<path id="Ellipse_1-3" class="shp41" d="M117.6 650.9C153.8 650.9 183.1 657.8 183.1 666.4C183.1 675 153.8 681.9 117.6 681.9C81.4 681.9 52.1 675 52.1 666.4C52.1 657.8 81.5 650.9 117.6 650.9Z" />
			</g>
		</g>
		<g id="leaves">
			<g id="leaves-2">
				<g id="leaf">
					<g id="Shape_2-4">
						<path id="Shape_2-5" class="shp42" d="M112.1 652.9C108.5 628.1 98.7 592.4 69.1 553.9C51.7 531.2 51.6 475.9 49.1 469.9C62.8 474.6 87.3 486.7 112.1 520.9C138.1 556.7 121.6 629.7 112.1 652.9Z" />
						<g id="Layer">
							<g id="Layer">
								<g id="Shape_2-6">
									<path id="Shape_3" class="shp43" d="M111.1 652.9C113.8 592.7 106.3 554.8 82.8 518.9" />
								</g>
							</g>
						</g>
					</g>
				</g>
				<g id="leaf-2">
					<g id="Shape_2-7">
						<path id="Shape_2-8" class="shp44" d="M112.2 678.3C101.1 660.6 81.6 636.7 46.1 617.2C25.2 605.8 6.6 563.7 2.6 559.9C14.6 558.9 37.4 559.9 67.8 577.6C99.7 596.2 111.7 657.5 112.2 678.3Z" />
						<g id="Layer">
							<g id="Layer">
								<g id="Shape_2-9">
									<path id="Shape_3-2" class="shp43" d="M111.5 678.6C93.3 631.8 74.8 605.4 44.8 585.9" />
								</g>
							</g>
						</g>
					</g>
				</g>
				<g id="leaf-3">
					<g id="Shape_2-10">
						<path id="Shape_2-11" class="shp45" d="M120.2 680.7C128.9 661.7 145.3 635.3 178.1 611.4C197.4 597.3 210.5 553 214 548.7C201.9 549.2 179.3 553.2 151.3 574.8C122 597.4 118 659.9 120.2 680.7Z" />
						<g id="Layer">
							<g id="Layer">
								<g id="Shape_2-12">
									<path id="Shape_3-3" class="shp43" d="M117.6 680.6C129.6 631.7 144.6 602.9 172 579.7" />
								</g>
							</g>
						</g>
					</g>
				</g>
			</g>
		</g>
		<path id="作 " fill="#000000" d="M629.8 136.55C622.3 157.85 609.25 179.15 595.6 192.65C598.75 197.15 603.85 207.35 605.5 211.7C608.5 208.4 611.65 204.65 614.8 200.9L614.8 275.9L632.8 275.9L632.8 173.15C638.35 163.1 643.3 152.45 647.2 141.95ZM737.35 177.35L737.35 160.4L679.15 160.4C682 154.25 684.4 148.1 686.5 141.8L669.25 137.45C662.5 158.9 650.65 180.5 637.45 194C641.2 196.85 648.25 203.15 651.1 206.45C657.85 198.65 664.75 188.45 670.75 177.35L676.45 177.35L676.45 276.05L694.75 276.05L694.75 242.75L735.55 242.75L735.55 226.25L694.75 226.25L694.75 209.3L733.6 209.3L733.6 193.1L694.75 193.1L694.75 177.35Z" />
		<path id="文 " fill="#000000" d="M936.95 177.05C930.5 193.85 921.95 208.1 911.15 219.8C899.6 207.65 890.75 193.25 884.45 177.05ZM979.55 177.05L979.55 159.65L920 159.65L920 135.95L901.85 135.95L901.85 159.65L843.05 159.65L843.05 177.05L864.5 177.05C872.6 198.95 882.95 217.7 896.45 233.15C881.3 244.7 862.55 253.25 840.35 259.1C843.95 263.45 849.5 271.85 851.6 276.5C874.4 269.3 893.75 259.55 910.1 246.5C925.85 259.85 945.35 269.9 969.5 276.05C972.2 270.95 977.9 262.55 982.25 258.2C959.45 253.1 940.55 244.25 925.1 232.4C938.9 217.4 949.85 199.1 957.95 177.05Z" />
	</g>
</svg>